<svg width="23" height="25" viewBox="0 0 23 25" fill="none" xmlns="http://www.w3.org/2000/svg">
<path d="M2.56533 22.223C2.56533 22.8198 2.81367 23.3921 3.25572 23.814C3.69777 24.236 4.29731 24.473 4.92247 24.473H19.0653C19.6905 24.473 20.29 24.236 20.7321 23.814C21.1741 23.3921 21.4225 22.8198 21.4225 22.223V6.47303H2.56533V22.223ZM15.9225 10.223C15.9225 10.0241 16.0052 9.83335 16.1526 9.6927C16.2999 9.55205 16.4998 9.47303 16.7082 9.47303C16.9166 9.47303 17.1164 9.55205 17.2638 9.6927C17.4111 9.83335 17.4939 10.0241 17.4939 10.223V20.723C17.4939 20.9219 17.4111 21.1127 17.2638 21.2534C17.1164 21.394 16.9166 21.473 16.7082 21.473C16.4998 21.473 16.2999 21.394 16.1526 21.2534C16.0052 21.1127 15.9225 20.9219 15.9225 20.723V10.223ZM11.2082 10.223C11.2082 10.0241 11.291 9.83335 11.4383 9.6927C11.5857 9.55205 11.7855 9.47303 11.9939 9.47303C12.2023 9.47303 12.4021 9.55205 12.5495 9.6927C12.6968 9.83335 12.7796 10.0241 12.7796 10.223V20.723C12.7796 20.9219 12.6968 21.1127 12.5495 21.2534C12.4021 21.394 12.2023 21.473 11.9939 21.473C11.7855 21.473 11.5857 21.394 11.4383 21.2534C11.291 21.1127 11.2082 20.9219 11.2082 20.723V10.223ZM6.4939 10.223C6.4939 10.0241 6.57668 9.83335 6.72403 9.6927C6.87138 9.55205 7.07123 9.47303 7.27961 9.47303C7.488 9.47303 7.68784 9.55205 7.83519 9.6927C7.98254 9.83335 8.06532 10.0241 8.06532 10.223V20.723C8.06532 20.9219 7.98254 21.1127 7.83519 21.2534C7.68784 21.394 7.488 21.473 7.27961 21.473C7.07123 21.473 6.87138 21.394 6.72403 21.2534C6.57668 21.1127 6.4939 20.9219 6.4939 20.723V10.223ZM22.2082 1.97303H16.3153L15.8537 1.09647C15.7559 0.909069 15.6053 0.751432 15.4188 0.641293C15.2323 0.531153 15.0172 0.472881 14.7979 0.473031H9.18497C8.96614 0.472228 8.75149 0.530283 8.56563 0.640545C8.37977 0.750807 8.2302 0.908816 8.13407 1.09647L7.67247 1.97303H1.77961C1.57123 1.97303 1.37138 2.05205 1.22403 2.1927C1.07668 2.33335 0.993896 2.52412 0.993896 2.72303L0.993896 4.22303C0.993896 4.42194 1.07668 4.61271 1.22403 4.75336C1.37138 4.89401 1.57123 4.97303 1.77961 4.97303H22.2082C22.4166 4.97303 22.6164 4.89401 22.7638 4.75336C22.9111 4.61271 22.9939 4.42194 22.9939 4.22303V2.72303C22.9939 2.52412 22.9111 2.33335 22.7638 2.1927C22.6164 2.05205 22.4166 1.97303 22.2082 1.97303Z" fill="#EA5555"/>
</svg>
