<svg width="23" height="25" viewBox="0 0 23 25" fill="none" xmlns="http://www.w3.org/2000/svg">
<path d="M14.8403 9.56708C17.4075 12.3706 17.3723 16.8654 14.8558 19.626C14.851 19.6316 14.8454 19.6377 14.8403 19.6433L11.9528 22.7933C9.40602 25.5716 5.26259 25.5712 2.71622 22.7933C0.169463 20.0155 0.169463 15.4949 2.71622 12.7171L4.31062 10.9777C4.73343 10.5165 5.46158 10.8231 5.48341 11.4749C5.51125 12.3056 5.64781 13.1402 5.89978 13.9462C5.98511 14.2191 5.92414 14.521 5.73723 14.7249L5.17489 15.3383C3.97065 16.652 3.93288 18.7911 5.12526 20.1177C6.32942 21.4573 8.30865 21.4653 9.52204 20.1416L12.4095 16.9921C13.6209 15.6706 13.6158 13.5347 12.4095 12.2188C12.2505 12.0456 12.0903 11.9111 11.9652 11.8171C11.8767 11.7508 11.8036 11.6629 11.7518 11.5603C11.6999 11.4577 11.6708 11.3433 11.6667 11.2262C11.6497 10.7309 11.8106 10.2205 12.1693 9.82907L13.074 8.84211C13.3112 8.58332 13.6834 8.55154 13.9585 8.76097C14.2735 9.00095 14.5686 9.27069 14.8403 9.56708ZM20.8961 2.96043C18.3497 0.182526 14.2063 0.182151 11.6595 2.96043L8.77202 6.11043C8.76687 6.11605 8.76128 6.12215 8.75655 6.12777C6.24005 8.88833 6.20477 13.3831 8.77202 16.1867C9.0437 16.483 9.33876 16.7528 9.65378 16.9927C9.92887 17.2022 10.3011 17.1703 10.5383 16.9116L11.4429 15.9246C11.8017 15.5332 11.9626 15.0228 11.9456 14.5275C11.9415 14.4104 11.9123 14.296 11.8605 14.1934C11.8087 14.0909 11.7356 14.0029 11.6471 13.9366C11.5219 13.8426 11.3617 13.7081 11.2027 13.5349C9.99646 12.219 9.99139 10.0831 11.2027 8.76163L14.0902 5.6121C15.3036 4.2884 17.2828 4.29637 18.487 5.63601C19.6794 6.96257 19.6417 9.10166 18.4374 10.4154L17.875 11.0288C17.6881 11.2327 17.6272 11.5346 17.7125 11.8075C17.9645 12.6135 18.101 13.4481 18.1289 14.2788C18.1507 14.9307 18.8788 15.2372 19.3016 14.776L20.896 13.0366C23.4428 10.2589 23.4428 5.73824 20.8961 2.96043Z" fill="#EFEFF1"/>
</svg>
