<svg width="28" height="40" viewBox="0 0 28 40" fill="none" xmlns="http://www.w3.org/2000/svg">
<path d="M14 7.97571C13.477 7.97571 12.9753 8.18349 12.6055 8.55335C12.2356 8.9232 12.0278 9.42483 12.0278 9.94788V20.1549C12.0278 20.678 12.2356 21.1796 12.6055 21.5494C12.9753 21.9193 13.477 22.1271 14 22.1271C14.5231 22.1271 15.0247 21.9193 15.3945 21.5494C15.7644 21.1796 15.9722 20.678 15.9722 20.1549V9.94788C15.9722 9.42483 15.7644 8.9232 15.3945 8.55335C15.0247 8.18349 14.5231 7.97571 14 7.97571ZM14 0.0870361C10.3386 0.0870361 6.82724 1.54151 4.23827 4.13048C1.64929 6.71945 0.194824 10.2309 0.194824 13.8922V25.7252C0.194824 29.3866 1.64929 32.898 4.23827 35.487C6.82724 38.0759 10.3386 39.5304 14 39.5304C17.6614 39.5304 21.1728 38.0759 23.7617 35.487C26.3507 32.898 27.8052 29.3866 27.8052 25.7252V13.8922C27.8052 10.2309 26.3507 6.71945 23.7617 4.13048C21.1728 1.54151 17.6614 0.0870361 14 0.0870361ZM23.8609 25.7252C23.8609 28.3405 22.8219 30.8486 20.9727 32.6979C19.1234 34.5472 16.6153 35.5861 14 35.5861C11.3847 35.5861 8.8766 34.5472 7.02734 32.6979C5.17807 30.8486 4.13916 28.3405 4.13916 25.7252V13.8922C4.13916 11.277 5.17807 8.76882 7.02734 6.91955C8.8766 5.07028 11.3847 4.03137 14 4.03137C16.6153 4.03137 19.1234 5.07028 20.9727 6.91955C22.8219 8.76882 23.8609 11.277 23.8609 13.8922V25.7252Z" fill="#EFEFF1"/>
</svg>
