<svg width="23" height="22" viewBox="0 0 23 22" fill="none" xmlns="http://www.w3.org/2000/svg">
<path d="M21.3352 8.33197H14.2638V1.58197C14.2638 0.753689 13.5601 0.0819702 12.6923 0.0819702H11.1209C10.2532 0.0819702 9.54947 0.753689 9.54947 1.58197V8.33197H2.47804C1.61032 8.33197 0.906616 9.00369 0.906616 9.83197V11.332C0.906616 12.1603 1.61032 12.832 2.47804 12.832H9.54947V19.582C9.54947 20.4103 10.2532 21.082 11.1209 21.082H12.6923C13.5601 21.082 14.2638 20.4103 14.2638 19.582V12.832H21.3352C22.2029 12.832 22.9066 12.1603 22.9066 11.332V9.83197C22.9066 9.00369 22.2029 8.33197 21.3352 8.33197Z" fill="#6E6EEE"/>
</svg>
