<svg width="19" height="19" viewBox="0 0 19 19" fill="none" xmlns="http://www.w3.org/2000/svg">
<path d="M18.168 4.5171L14.7978 1.14684C14.4361 0.785163 13.9456 0.581973 13.4341 0.58197H2.66148C1.59635 0.58197 0.73291 1.44541 0.73291 2.51054V16.6534C0.73291 17.7185 1.59635 18.582 2.66148 18.582H16.8043C17.8695 18.582 18.7329 17.7185 18.7329 16.6534V5.8808C18.7329 5.36931 18.5297 4.87877 18.168 4.5171ZM9.73291 16.0105C8.31276 16.0105 7.16148 14.8593 7.16148 13.4391C7.16148 12.019 8.31276 10.8677 9.73291 10.8677C11.1531 10.8677 12.3043 12.019 12.3043 13.4391C12.3043 14.8593 11.1531 16.0105 9.73291 16.0105ZM13.5901 3.77536V7.81411C13.5901 8.08038 13.3742 8.29626 13.1079 8.29626H3.78648C3.52022 8.29626 3.30434 8.08038 3.30434 7.81411V3.63554C3.30434 3.36928 3.52022 3.1534 3.78648 3.1534H12.9681C13.096 3.1534 13.2186 3.20418 13.309 3.29463L13.4488 3.43445C13.4936 3.47921 13.5291 3.53236 13.5534 3.59085C13.5776 3.64935 13.5901 3.71205 13.5901 3.77536Z" fill="#EFEFF1"/>
</svg>
